<svg xmlns="http://www.w3.org/2000/svg" viewBox="0 0 512 512">
  <path fill="#000000" d="M 271 108 L 339 143 L 381 215 L 381 295 L 362 340 L 324 377 L 345 330 L 333 276 L 232 198 L 216 175 L 218 140 L 244 109 L 202 119 L 152 155 L 124 199 L 113 247 L 120 301 L 149 353 L 189 386 L 242 403 L 175 362 L 157 306 L 169 277 L 191 260 L 222 258 L 245 274 L 254 297 L 254 449 L 259 298 L 251 274 L 212 252 L 173 265 L 152 301 L 156 347 L 132 296 L 127 241 L 139 193 L 162 156 L 196 128 L 234 115 L 210 146 L 209 189 L 231 218 L 315 278 L 333 317 L 317 372 L 269 403 L 310 393 L 348 369 L 394 296 L 393 210 L 347 140 Z M 255 63 L 254 64 L 254 186 L 255 187 L 256 194 L 259 200 L 264 206 L 267 207 L 268 205 L 265 202 L 262 196 L 262 194 L 260 190 L 260 186 L 259 185 L 259 64 L 258 63 Z"/>
</svg>
